<svg width="21.8944" height="17.968" viewBox="0 0 21.8944 17.968" fill="none" xmlns="http://www.w3.org/2000/svg">
<g id="Group">
<path id="Vector" d="M11.0792 7.15999C13.2024 6.92744 14.1933 8.74739 12.3733 10.1123C11.9992 10.4056 11.6049 10.6684 11.0792 10.8201C9.9872 11.1942 8.62224 10.1123 8.68291 8.81816C8.70313 7.41276 10.0074 7.04877 11.0792 7.15999Z" fill="var(--fill-0, black)"/>
<path id="Vector_2" d="M9.42097 0.00155744C17.8028 -0.0489966 21.8067 9.26305 15.6998 15.1475C12.3632 18.6054 6.28662 19.0806 2.8085 15.4711C-3.1872 9.50571 1.06944 -0.139994 9.42097 0.00155744ZM9.42097 0.15322C2.44451 0.193663 -0.851608 9.70793 3.81958 14.4802C8.90532 19.9805 17.8938 16.4518 17.3883 8.82829C17.2366 4.58175 14.0214 0.112776 9.42097 0.15322Z" fill="var(--fill-0, black)"/>
<path id="Vector_3" d="M12.6666 0.00154055C21.0484 -0.0490135 25.0523 9.26304 18.9454 15.1475C15.6088 18.6054 9.53221 19.0806 6.0541 15.4711C0.0685001 9.5057 4.31504 -0.140011 12.6666 0.00154055ZM12.6666 0.153203C5.69011 0.193646 2.4041 9.70791 7.07529 14.4802C12.161 19.9805 21.1495 16.4518 20.644 8.82827C20.4822 4.58173 17.2771 0.112759 12.6666 0.153203Z" fill="var(--fill-0, black)"/>
</g>
</svg>
