<?xml version="1.0" encoding="UTF-8"?> <svg xmlns="http://www.w3.org/2000/svg" id="Layer_1" data-name="Layer 1" viewBox="0 0 618.27 117.93"><defs><style> .cls-1 { fill: #000; stroke-width: 0px; } </style></defs><path class="cls-1" d="M75.88,82.61c-3.19,0-6.2-.65-9.07-1.95-2.87-1.3-5.41-3.06-7.63-5.28-2.22-2.22-3.98-4.82-5.28-7.82s-1.96-6.2-1.96-9.65.65-6.65,1.96-9.65,3.07-5.61,5.28-7.83c2.22-2.22,4.76-3.98,7.63-5.28,2.87-1.3,5.87-1.96,9.07-1.96,2.87,0,5.48.39,7.76,1.24,2.28.85,4.3,1.95,6.07,3.33,1.76,1.37,3.26,2.87,4.43,4.56,1.17,1.7,2.02,3.46,2.61,5.22l-6.85.98c-.46-1.11-1.11-2.22-1.96-3.33-.85-1.11-1.83-2.09-3-2.93-1.17-.85-2.48-1.57-3.98-2.09-1.5-.52-3.19-.78-5.09-.78-2.22,0-4.37.46-6.39,1.43-2.02.98-3.85,2.28-5.41,3.98-1.56,1.69-2.8,3.65-3.72,5.93-.91,2.28-1.37,4.7-1.37,7.31s.46,5.02,1.37,7.3c.91,2.28,2.15,4.24,3.72,5.94,1.57,1.69,3.39,3,5.41,3.98,2.02.98,4.17,1.43,6.39,1.43,2.02,0,3.85-.26,5.48-.85,1.63-.59,3.06-1.37,4.3-2.28,1.24-.91,2.35-2.02,3.26-3.26.91-1.24,1.63-2.48,2.22-3.78l6.85.98c-.59,1.89-1.5,3.72-2.74,5.55-1.24,1.83-2.8,3.46-4.7,4.89-1.89,1.43-4.04,2.61-6.52,3.52-2.48.92-5.22,1.37-8.22,1.37l.07-.2Z"></path><path class="cls-1" d="M157.35,35.2l11.09,45.65h-7.17l-2.61-10.76h-23.22l-2.54,10.76h-7.17l11.09-45.65h20.54ZM157.16,63.89l-5.35-22.5h-9.46l-5.41,22.5h20.22Z"></path><path class="cls-1" d="M227.86,68.65c0-1.24-.39-2.28-1.17-3.07s-1.83-1.5-3.13-2.09-2.8-1.11-4.5-1.57-3.39-.98-5.09-1.5c-1.7-.52-3.39-1.11-5.09-1.76-1.69-.65-3.19-1.5-4.5-2.48s-2.35-2.22-3.13-3.65c-.78-1.43-1.17-3.2-1.17-5.22,0-1.76.39-3.46,1.17-5.09.78-1.63,1.89-3.06,3.33-4.3,1.43-1.24,3.2-2.28,5.22-3.06,2.02-.78,4.3-1.17,6.85-1.17s4.63.33,6.59,1.04,3.65,1.63,5.15,2.8c1.5,1.18,2.74,2.54,3.72,4.11.98,1.57,1.69,3.26,2.15,5.02l-6.85.98c-.33-1.11-.78-2.15-1.37-3.13-.59-.98-1.31-1.83-2.22-2.54s-1.95-1.24-3.13-1.63c-1.17-.39-2.54-.59-4.11-.59s-2.81.19-3.98.65-2.22,1.05-3.06,1.76-1.5,1.5-1.96,2.41c-.46.92-.72,1.83-.72,2.74,0,1.24.39,2.28,1.17,3.13.78.85,1.83,1.57,3.13,2.15s2.81,1.11,4.5,1.57c1.69.46,3.39.91,5.09,1.43s3.39,1.11,5.09,1.76c1.7.65,3.19,1.43,4.5,2.41,1.31.98,2.35,2.15,3.13,3.52.78,1.37,1.17,3.07,1.17,5.09s-.39,3.85-1.24,5.61c-.85,1.76-2.02,3.33-3.59,4.63s-3.46,2.35-5.68,3.13c-2.22.78-4.69,1.17-7.5,1.17s-5.09-.33-7.17-1.05c-2.09-.71-3.91-1.69-5.48-2.93-1.56-1.24-2.87-2.74-3.98-4.44-1.11-1.69-1.96-3.59-2.61-5.61l6.85-.98c.39,1.24.98,2.35,1.7,3.39s1.57,1.96,2.54,2.74c.98.78,2.15,1.43,3.52,1.89,1.37.46,2.94.65,4.63.65s3.26-.26,4.63-.72c1.37-.46,2.54-1.11,3.52-1.89.98-.78,1.7-1.7,2.22-2.74.52-1.05.78-2.09.78-3.13l.06.52Z"></path><path class="cls-1" d="M261.72,35.2h37.5v6.2h-15.32v39.46h-6.85v-39.46h-15.32v-6.2Z"></path><path class="cls-1" d="M364.12,80.85h-33.59v-45.65h33.59v6.2h-26.74v13.37h21.19v6.2h-21.19v13.7h26.74v6.2Z"></path><path class="cls-1" d="M428.37,74.65v6.2h-31.96v-45.65h6.85v39.46h25.11Z"></path><path class="cls-1" d="M490.99,74.65v6.2h-31.96v-45.65h6.85v39.46h25.11Z"></path><path class="cls-1" d="M564.37,67.68c-1.3,3-3.06,5.61-5.28,7.82-2.22,2.22-4.82,3.98-7.76,5.28-2.93,1.3-6.06,1.95-9.39,1.95s-6.46-.65-9.39-1.95-5.55-3.07-7.76-5.28-3.98-4.82-5.28-7.82-1.95-6.2-1.95-9.65.65-6.65,1.95-9.65c1.3-3,3.07-5.61,5.28-7.83,2.22-2.22,4.83-3.98,7.76-5.28,2.93-1.31,6.06-1.96,9.39-1.96s6.46.65,9.39,1.96c2.94,1.3,5.55,3.06,7.76,5.28s3.98,4.83,5.28,7.83c1.3,3,1.96,6.2,1.96,9.65s-.65,6.65-1.96,9.65ZM525.69,65.33c.98,2.28,2.28,4.24,3.92,5.94,1.63,1.69,3.52,3,5.67,3.98s4.37,1.43,6.72,1.43,4.56-.46,6.72-1.43,4.04-2.28,5.68-3.98c1.63-1.7,2.93-3.65,3.91-5.94.98-2.28,1.43-4.69,1.43-7.3s-.46-5.02-1.43-7.31-2.28-4.24-3.91-5.93c-1.63-1.7-3.52-3-5.68-3.98s-4.37-1.43-6.72-1.43-4.57.46-6.72,1.43-4.04,2.28-5.67,3.98c-1.63,1.69-2.94,3.65-3.92,5.93-.98,2.28-1.43,4.7-1.43,7.31s.46,5.02,1.43,7.3Z"></path></svg> 