<?xml version="1.0" encoding="UTF-8"?>
<svg xmlns="http://www.w3.org/2000/svg" viewBox="240 345 184 50">
  <path fill="#fff" d="M265.56,356.17h11.48v-1.92h-10.56l3.01-6.16-1.73-.86-3.43,7.05c-1.62.03-3.04.17-4.15.47-1.28.33-2.28.81-3.04,1.39s-1.34,1.31-1.78,2.17c-.42.84-.64,1.78-.7,2.9s0,2.54.11,4.32c.14,2.42.14,4.46,0,6.13-.11,1.5-.5,2.95-1.14,4.4h-7.72v1.92h6.85l-5.21,10.7,1.73.86,5.63-11.56h8.11v-1.92h-7.19l9.7-19.87.03-.03ZM257.06,359.18c.47-.95,1.31-1.7,2.48-2.23.92-.42,2.2-.64,3.85-.75l-6.6,13.54c.03-1.42,0-2.9-.08-4.57-.08-1.64-.14-2.93-.08-3.79.03-.86.2-1.62.47-2.23l-.03.03Z"/>
  <polygon fill="#fff" points="384.17 354.58 382.45 353.72 378.16 362.53 379.88 363.39 384.17 354.58"/>
  <path fill="#fff" d="M412.4,366.9l-1.34-1.34c-4.51,4.43-8.67,8.3-12.4,11.65-.2.17-.39.33-.59.5,0-.42,0-.84.06-1.23.08-1.03.33-2.31.75-3.82s1.09-3.2,2.01-5.1c.75-1.59,1.73-3.29,2.93-5.07l-1.62-1.06c-1.03,1.64-1.84,3.04-2.48,4.21-4.51,5.1-8.16,9.11-10.9,12.04-2.76,2.95-4.96,5.15-6.63,6.63-1.64,1.48-2.98,2.37-3.96,2.73-.28-.92-.31-2.15,0-3.65,0-.06.03-.11.03-.14,2.03-1.09,4.04-2.42,5.94-4.1,2.15-1.87,3.76-3.93,4.85-6.16.95-1.95,1.37-3.71,1.25-5.29-.14-1.59-.95-2.79-2.42-3.59-.56.64-1.11,1.25-1.62,1.87l-16.41,18.14,8.55-17.67-1.73-.86-2.87,3.43c-3.57,4.26-6.46,7.66-8.69,10.14s-4.07,4.4-5.46,5.66c-1.42,1.28-2.54,2.03-3.37,2.26-.28-.89-.31-2.09,0-3.59.28-1.5.86-3.18,1.78-5.07.89-1.81,2.2-3.93,3.93-6.35.78-1.11,1.56-2.12,2.28-3.01l1.23-1.45c.42-.47.84-.92,1.23-1.31-.17,1.11-.56,2.48-1.23,4.12-.67,1.67-1.5,3.37-2.48,5.1l1.62.95c1.25-2.17,2.26-4.32,3.01-6.46s1.11-3.76,1.06-4.93l-2.26-1.14c-.53.47-1.11,1.03-1.7,1.64h-.03l-.64.72c-.22.25-.47.53-.7.81l-15.83,18.5c.47-1.45,1.11-3.18,1.92-5.27,1.14-2.98,2.54-6.46,4.21-10.45.45-1.06.89-2.09,1.34-3.12l-2.34-1.25-12.26,16.11,9.42-19.25-1.73-.86-1.95,4.01c-4.54,5.13-8.22,9.17-10.95,12.09-2.76,2.95-4.96,5.15-6.63,6.63-1.64,1.48-2.98,2.37-3.96,2.73-.28-.92-.31-2.15,0-3.65,0-.06.03-.11.03-.14,2.03-1.09,4.04-2.42,5.94-4.1,2.15-1.87,3.76-3.93,4.85-6.16.95-1.95,1.37-3.71,1.25-5.29-.14-1.59-.95-2.79-2.42-3.59-.59.64-1.14,1.28-1.67,1.89l-16.16,17.92,8.25-16.75-1.92-.95c-3.62,5.32-6.63,9.47-8.97,12.48-2.2,2.81-4.43,5.24-6.69,7.33,1.89-5.15,4.88-11.68,9.03-19.59l-1.73-.86-15.63,17.92c-.2.22-.36.42-.53.64l2.48-5.71.45-.92s.06-.08.06-.11c.03-.06.06-.11.08-.17l5.27-10.78-1.73-.86-1.53,3.15c-.11-2.2-.95-3.76-2.54-4.63-.47.5-.89,1-1.34,1.5h0c-4.57,5.13-8.22,9.17-10.98,12.09-2.76,2.95-4.96,5.15-6.63,6.63-1.64,1.48-2.98,2.37-3.96,2.73-.28-.92-.31-2.15,0-3.65,0-.06.03-.11.03-.14,2.03-1.09,4.04-2.42,5.94-4.1,2.15-1.87,3.76-3.93,4.85-6.16.95-1.95,1.37-3.71,1.25-5.29-.14-1.59-.95-2.79-2.42-3.59-.56.61-1.06,1.2-1.56,1.78l-17.19,18.75c1.09-2.26,2.23-4.57,3.46-6.88,1.5-2.84,3.18-5.85,5.02-9.03-.89-.47-1.64-.86-2.23-1.23l6.35-7.19-2.09-1.87c-1.95.92-3.59,1.84-4.99,2.73s-2.34,1.87-2.84,2.93c-.5,1.14-.47,2.15.11,2.95.59.84,1.59,1.64,3.04,2.42-3.04,5.35-5.66,10.42-7.89,15.19l-1.62,3.59,1.87,1.2,11.03-11.98c-1.28,2.62-1.98,4.96-2.12,6.97-.14,2.03.22,3.59,1.09,4.68,1.25.06,2.76-.59,4.51-1.92s4.12-3.54,7.02-6.6c.84-.89,1.81-1.92,2.87-3.07-.06.08-.11.2-.17.31-.89,1.84-1.59,3.62-2.09,5.29-.5,1.7-.84,3.32-1.03,4.88l1.87,1.25c1.7-.86,3.32-2.03,4.88-3.51.45-.42.84-.86,1.25-1.28l-4.21,9.61,1.73.75.67-1.53c.53-1.23,1.28-2.51,2.26-3.9,1.03-1.45,2.26-3.01,3.73-4.65l10.67-12.23c-2.81,5.74-4.93,10.73-6.33,14.91l2.26,1.48c2.65-2.28,5.18-4.96,7.63-8,1.11-1.37,2.34-2.98,3.68-4.79l-5.96,12.18,1.92,1.14,10.45-11.62c-1.17,2.48-1.84,4.71-1.98,6.6-.14,2.03.22,3.59,1.09,4.68,1.25.06,2.76-.59,4.51-1.92s4.12-3.54,7.02-6.6c2.03-2.12,4.68-5.04,7.91-8.64l-8.11,16.61,1.81,1.06,14.6-19.09c-1.53,3.76-2.84,7.02-3.85,9.67-1.28,3.32-2.2,6.02-2.76,8.14l2.15,1.06,8.67-10.14c-.81,1.92-1.28,3.65-1.39,5.21-.17,1.98.17,3.54,1,4.6,1.25.22,2.76-.36,4.51-1.73s3.98-3.54,6.63-6.55c1.73-1.98,4.1-4.74,6.94-8.14l-7.61,15.72,1.92,1.14,10.62-11.79c-1.17,2.51-1.87,4.74-2.01,6.69-.14,2.03.22,3.59,1.09,4.68,1.25.06,2.76-.59,4.51-1.92s4.12-3.54,7.02-6.6c2.2-2.28,5.07-5.46,8.64-9.47-.11.36-.28.75-.36,1.09-.45,1.64-.72,3.01-.81,4.12-.08.92-.11,1.95-.08,3.04-3.07,2.65-6.3,5.35-9.84,8.11l.67,1.81c1.73-.03,3.26-.17,4.6-.42,1.37-.25,2.54-.7,3.54-1.31s1.76-1.45,2.23-2.45c.36-.72.56-1.45.64-2.17.08-.67.08-1.56.08-2.62.75-.67,1.56-1.31,2.28-1.98,3.71-3.26,7.72-7.08,12.04-11.4l-.11.06ZM273.16,364.81c.22-.45.61-.92,1.2-1.39s1.25-.92,2.03-1.37c.5-.28,1.09-.59,1.67-.86l-4.57,5.15c-.45-.45-.56-.98-.33-1.53h0ZM287.65,366.87s.06-.06.08-.11c.7,1.17.47,2.95-.72,5.35-1.03,2.01-2.51,3.87-4.49,5.6-1.23,1.06-2.48,1.98-3.76,2.79.28-.75.59-1.5,1-2.34.75-1.59,1.76-3.29,3.01-5.1,1.09-1.56,2.51-3.4,4.21-5.41l.7-.75h-.03v-.03ZM294.14,383.73c-1.25,1.25-2.59,2.31-3.98,3.15.2-1.25.5-2.51.92-3.82.45-1.37,1.06-2.84,1.81-4.4.86-1.78,1.92-3.62,3.2-5.55s2.9-4.01,4.88-6.3c.5.95.64,2.31.39,4.1-.25,1.76-.86,3.65-1.81,5.6-.42.89-1.09,1.98-2.03,3.29s-2.06,2.62-3.37,3.93h0ZM333.71,372.14c-1.03,2.01-2.51,3.87-4.49,5.6-1.23,1.06-2.48,1.98-3.76,2.79.28-.75.59-1.5,1-2.34.75-1.59,1.76-3.29,3.01-5.1s2.9-3.93,4.96-6.3c.7,1.17.47,2.95-.72,5.35h0ZM387.32,372.14c-1.03,2.01-2.51,3.87-4.49,5.6-1.23,1.06-2.48,1.98-3.76,2.79.28-.75.59-1.5,1-2.34.75-1.59,1.76-3.29,3.01-5.1s2.9-3.93,4.96-6.3c.7,1.17.47,2.95-.72,5.35h0ZM396.13,382.45c-.06.61-.22,1.2-.47,1.76-.47.98-1.31,1.73-2.54,2.23-.86.36-2.01.59-3.29.72,2.17-1.73,4.29-3.48,6.33-5.21,0,.17,0,.36-.03.5h0Z"/>
</svg>
